<svg width="18" height="18" viewBox="0 0 18 18" fill="none" xmlns="http://www.w3.org/2000/svg">
<rect width="18" height="18" fill="#E5E5E5"/>
<g clip-path="url(#clip0_0_1)">
<rect width="1440" height="1024" transform="translate(-66 -377)" fill="url(#paint0_radial_0_1)"/>
<g clip-path="url(#clip1_0_1)">
<rect width="300" height="1024" transform="translate(-66 -377)" fill="url(#paint1_linear_0_1)"/>
<path fill-rule="evenodd" clip-rule="evenodd" d="M6.75 6.75H4.5C3.25725 6.75 2.25 5.74275 2.25 4.5V4.5C2.25 3.25725 3.25725 2.25 4.5 2.25V2.25C5.74275 2.25 6.75 3.25725 6.75 4.5V6.75Z" stroke="#6F6C99" stroke-width="1.5" stroke-linecap="round" stroke-linejoin="round"/>
<path fill-rule="evenodd" clip-rule="evenodd" d="M6.75 6.75H11.25V11.25H6.75V6.75Z" stroke="#6F6C99" stroke-width="1.5" stroke-linecap="round" stroke-linejoin="round"/>
<path fill-rule="evenodd" clip-rule="evenodd" d="M4.5 15.75V15.75C3.25725 15.75 2.25 14.7428 2.25 13.5V13.5C2.25 12.2572 3.25725 11.25 4.5 11.25H6.75V13.5C6.75 14.7428 5.74275 15.75 4.5 15.75Z" stroke="#6F6C99" stroke-width="1.5" stroke-linecap="round" stroke-linejoin="round"/>
<path fill-rule="evenodd" clip-rule="evenodd" d="M11.25 11.25H13.5C14.7428 11.25 15.75 12.2572 15.75 13.5V13.5C15.75 14.7428 14.7428 15.75 13.5 15.75V15.75C12.2572 15.75 11.25 14.7428 11.25 13.5V11.25Z" stroke="#6F6C99" stroke-width="1.5" stroke-linecap="round" stroke-linejoin="round"/>
<path fill-rule="evenodd" clip-rule="evenodd" d="M13.5 2.25V2.25C14.7428 2.25 15.75 3.25725 15.75 4.5V4.5C15.75 5.74275 14.7428 6.75 13.5 6.75H11.25V4.5C11.25 3.25725 12.2572 2.25 13.5 2.25Z" stroke="#6F6C99" stroke-width="1.5" stroke-linecap="round" stroke-linejoin="round"/>
</g>
</g>
<defs>
<radialGradient id="paint0_radial_0_1" cx="0" cy="0" r="1" gradientUnits="userSpaceOnUse" gradientTransform="translate(1452.78 -57.3032) rotate(90) scale(1327.81 1774.43)">
<stop stop-color="#201D47"/>
<stop offset="1" stop-color="#17153A"/>
</radialGradient>
<linearGradient id="paint1_linear_0_1" x1="99.5184" y1="0" x2="99.5184" y2="1024" gradientUnits="userSpaceOnUse">
<stop stop-color="#262250" stop-opacity="0.65"/>
<stop offset="0.574389" stop-color="#1B1942" stop-opacity="0.85"/>
<stop offset="1" stop-color="#17163B"/>
</linearGradient>
<clipPath id="clip0_0_1">
<rect width="1440" height="1024" fill="white" transform="translate(-66 -377)"/>
</clipPath>
<clipPath id="clip1_0_1">
<rect width="300" height="1024" fill="white" transform="translate(-66 -377)"/>
</clipPath>
</defs>
</svg>
