<svg width="34" height="34" viewBox="0 0 34 34" fill="none" xmlns="http://www.w3.org/2000/svg">
<path d="M17.0002 21.9583C20.131 21.9583 22.6668 19.4224 22.6668 16.2916V8.49995C22.6668 5.36912 20.131 2.83328 17.0002 2.83328C13.8693 2.83328 11.3335 5.36912 11.3335 8.49995V16.2916C11.3335 19.4224 13.8693 21.9583 17.0002 21.9583Z" stroke="#9897E5" stroke-width="2.03897" stroke-linecap="round" stroke-linejoin="round"/>
<path d="M6.1626 13.6708V16.0792C6.1626 22.0575 11.0218 26.9167 17.0001 26.9167C22.9784 26.9167 27.8376 22.0575 27.8376 16.0792V13.6708" stroke="#9897E5" stroke-width="2.03897" stroke-linecap="round" stroke-linejoin="round"/>
<path d="M15.0308 9.10911C16.3058 8.64161 17.6941 8.64161 18.9691 9.10911" stroke="#9897E5" stroke-width="2.03897" stroke-linecap="round" stroke-linejoin="round"/>
<path d="M15.8667 12.1125C16.6175 11.9142 17.3967 11.9142 18.1475 12.1125" stroke="#9897E5" stroke-width="2.03897" stroke-linecap="round" stroke-linejoin="round"/>
<path d="M17 26.9167V31.1667" stroke="#9897E5" stroke-width="2.03897" stroke-linecap="round" stroke-linejoin="round"/>
</svg>
