<svg xmlns="http://www.w3.org/2000/svg" version="1.1" width="64px" height="64px" style="shape-rendering:geometricPrecision; text-rendering:geometricPrecision; image-rendering:optimizeQuality; fill-rule:evenodd; clip-rule:evenodd" xmlns:xlink="http://www.w3.org/1999/xlink">
<g><path style="opacity:0.994" fill="#000101" d="M 3.5,-0.5 C 22.1667,-0.5 40.8333,-0.5 59.5,-0.5C 61.1667,0.5 62.5,1.83333 63.5,3.5C 63.5,22.1667 63.5,40.8333 63.5,59.5C 62.5,61.1667 61.1667,62.5 59.5,63.5C 40.8333,63.5 22.1667,63.5 3.5,63.5C 1.83333,62.5 0.5,61.1667 -0.5,59.5C -0.5,40.8333 -0.5,22.1667 -0.5,3.5C 0.5,1.83333 1.83333,0.5 3.5,-0.5 Z"/></g>
<g><path style="opacity:1" fill="#21ead1" d="M 17.5,19.5 C 21.8742,21.4586 26.3742,23.1253 31,24.5C 35.6515,23.2582 40.1515,21.5916 44.5,19.5C 46.1392,20.916 46.9725,22.5826 47,24.5C 42.4194,26.8732 37.9194,29.3732 33.5,32C 38.1667,34.6667 42.8333,37.3333 47.5,40C 46.624,41.586 45.624,43.086 44.5,44.5C 40.3789,42.2381 36.0455,40.5715 31.5,39.5C 27.0762,40.8764 22.7429,42.5431 18.5,44.5C 17.376,43.086 16.376,41.586 15.5,40C 20.1667,37.3333 24.8333,34.6667 29.5,32C 25.0806,29.3732 20.5806,26.8732 16,24.5C 16.1343,22.8107 16.6343,21.144 17.5,19.5 Z"/></g>
</svg>