<svg width="35" height="35" viewBox="0 0 35 35" fill="none" xmlns="http://www.w3.org/2000/svg">
<path d="M21.6078 11.3069L10.5445 22.5561C10.1782 22.9603 9.98142 23.4899 9.99485 24.0352C10.0083 24.5806 10.2309 25.0998 10.6166 25.4855C11.0023 25.8712 11.5216 26.0939 12.0669 26.1073C12.6122 26.1207 13.1418 25.9239 13.546 25.5577L26.7343 12.1834C27.4668 11.375 27.8604 10.3158 27.8336 9.22517C27.8067 8.13453 27.3615 7.096 26.5901 6.32457C25.8186 5.55314 24.7801 5.10791 23.6895 5.08106C22.5988 5.05421 21.5396 5.44779 20.7312 6.18032L7.54291 19.5545C6.34881 20.7486 5.67798 22.3682 5.67798 24.0569C5.67798 25.7456 6.34881 27.3651 7.54291 28.5592C8.73701 29.7533 10.3565 30.4242 12.0453 30.4242C13.734 30.4242 15.3535 29.7533 16.5476 28.5592L27.4515 17.6819" stroke="#9897E5" stroke-width="2.03897" stroke-linecap="round" stroke-linejoin="round"/>
</svg>
