<svg width="34" height="35" viewBox="0 0 34 35" fill="none" xmlns="http://www.w3.org/2000/svg">
<path d="M17 30.4319C24.0416 30.4319 29.75 24.7236 29.75 17.6819C29.75 10.6403 24.0416 4.93195 17 4.93195C9.95837 4.93195 4.25 10.6403 4.25 17.6819C4.25 24.7236 9.95837 30.4319 17 30.4319Z" stroke="#9897E5" stroke-width="2.03897" stroke-linecap="round" stroke-linejoin="round"/>
<path d="M12.2188 16.6194C13.099 16.6194 13.8125 15.9058 13.8125 15.0256C13.8125 14.1454 13.099 13.4319 12.2188 13.4319C11.3385 13.4319 10.625 14.1454 10.625 15.0256C10.625 15.9058 11.3385 16.6194 12.2188 16.6194Z" fill="#9897E5"/>
<path d="M21.7813 16.6194C22.6615 16.6194 23.375 15.9058 23.375 15.0256C23.375 14.1454 22.6615 13.4319 21.7813 13.4319C20.901 13.4319 20.1875 14.1454 20.1875 15.0256C20.1875 15.9058 20.901 16.6194 21.7813 16.6194Z" fill="#9897E5"/>
<path d="M22.5251 20.8694C21.9634 21.8371 21.1574 22.6402 20.1878 23.1985C19.2182 23.7569 18.119 24.0507 17.0001 24.0507C15.8812 24.0507 14.782 23.7569 13.8124 23.1985C12.8428 22.6402 12.0368 21.8371 11.4751 20.8694" stroke="#9897E5" stroke-width="2.03897" stroke-linecap="round" stroke-linejoin="round"/>
</svg>
