<svg width="18" height="18" viewBox="0 0 18 18" fill="none" xmlns="http://www.w3.org/2000/svg">
<path d="M1.125 8.4375L2.25 7.3125L3.375 8.4375" stroke="#6F6C99" stroke-width="1.2" stroke-linecap="round" stroke-linejoin="round"/>
<path d="M16.875 9.5625L15.75 10.6875L14.625 9.5625" stroke="#6F6C99" stroke-width="1.2" stroke-linecap="round" stroke-linejoin="round"/>
<path d="M3.50848 5.0925C4.73248 3.37575 6.73123 2.25 8.99998 2.25C12.7275 2.25 15.75 5.2725 15.75 9C15.75 9.513 15.6877 10.011 15.5797 10.491" stroke="#6F6C99" stroke-width="1.2" stroke-linecap="round" stroke-linejoin="round"/>
<path d="M14.4915 5.0925C12.765 5.673 10.9222 6 8.99998 6C7.07773 6 5.23498 5.673 3.50848 5.0925" stroke="#6F6C99" stroke-width="1.2" stroke-linecap="round" stroke-linejoin="round"/>
<path d="M14.4885 12.9045C13.2653 14.6212 11.2665 15.747 8.99701 15.747C5.26951 15.747 2.24701 12.7245 2.24701 8.997C2.24701 8.484 2.30926 7.986 2.41726 7.506" stroke="#6F6C99" stroke-width="1.2" stroke-linecap="round" stroke-linejoin="round"/>
<path d="M3.50623 12.9045C5.23273 12.324 7.07548 11.997 8.99773 11.997C10.92 11.997 12.7627 12.324 14.4892 12.9045" stroke="#6F6C99" stroke-width="1.2" stroke-linecap="round" stroke-linejoin="round"/>
<path fill-rule="evenodd" clip-rule="evenodd" d="M9 15.75C10.5533 15.75 11.8125 12.7279 11.8125 9C11.8125 5.27208 10.5533 2.25 9 2.25C7.4467 2.25 6.1875 5.27208 6.1875 9C6.1875 12.7279 7.4467 15.75 9 15.75Z" stroke="#6F6C99" stroke-width="1.2" stroke-linecap="round" stroke-linejoin="round"/>
</svg>
